<?xml version="1.0" encoding="utf-8"?>

<!DOCTYPE svg PUBLIC "-//W3C//DTD SVG 1.1//EN" "http://www.w3.org/Graphics/SVG/1.1/DTD/svg11.dtd">
<!-- Uploaded to: SVG Repo, www.svgrepo.com, Generator: SVG Repo Mixer Tools -->
<svg version="1.1" id="_x32_" xmlns="http://www.w3.org/2000/svg" xmlns:xlink="http://www.w3.org/1999/xlink" 
	 width="800px" height="800px" viewBox="0 0 512 512"  xml:space="preserve">
<style type="text/css">
<![CDATA[
	.st0{fill:#000000;}
]]>
</style>
<g>
	<path class="st0" d="M453.039,429.75c-2-7.5-4.828-14.234-8.328-20.234c-6.125-10.516-14.25-18.703-23.203-25.203
		c-6.703-4.875-13.891-8.828-21.172-12.25c-10.938-5.125-22.125-9.063-32.438-12.875c-10.328-3.797-19.781-7.531-27.094-11.859
		c-2.688-1.578-5.109-3.234-7.203-4.953c-3.125-2.625-5.531-5.391-7.297-8.5s-2.953-6.594-3.406-10.969
		c-0.328-3.109-0.469-6.063-0.469-8.844c0-8.25,1.219-15.422,2.766-22.734c4.625-5.219,8.844-11.422,12.844-18.859
		s7.813-16.172,11.594-26.5c2.438-1.109,4.875-2.438,7.281-4.031c5.453-3.688,10.625-8.781,14.938-15.594
		s7.781-15.281,10.141-25.734c0.656-2.891,0.969-5.781,0.969-8.609c0-5.938-1.391-11.594-3.75-16.641
		c-1.625-3.484-3.703-6.703-6.125-9.625c1.234-4.547,2.734-10.688,4.063-17.859c1.844-9.969,3.375-21.922,3.375-34.531
		c0-8.109-0.625-16.484-2.281-24.781c-1.25-6.203-3.047-12.359-5.625-18.266c-3.844-8.859-9.438-17.203-17.234-24.094
		c-7.203-6.391-16.234-11.453-27.125-14.734c-4.609-5.516-9.375-10.188-14.297-14.109c-8.281-6.609-17-11.047-25.891-13.719
		S270.18,0,261.195,0c-4.734,0-9.453,0.266-14.203,0.688c-4.438,0.406-8.125,0.859-11.422,1.422c-4.938,0.828-9,1.922-12.938,3.281
		c-3.953,1.359-7.75,2.953-12.734,4.906c-1.891,0.75-4.359,1.844-7.359,3.359c-5.219,2.625-11.969,6.531-19.156,11.906
		C172.57,33.609,160.633,45,151.352,60.406c-4.656,7.688-8.625,16.406-11.422,26.141c-2.813,9.766-4.438,20.516-4.438,32.281
		c0,7.313,0.656,15.063,2,23.172c0,0.563,0.031,1.125,0.063,1.656c0.063,1,0.172,2.063,0.281,3.156
		c0.172,1.609,0.359,3.281,0.5,4.688c0.078,0.688,0.141,1.313,0.188,1.813c0,0.234,0.016,0.438,0.031,0.594v0.156v0.047v0.016v0.922
		l1.984,8.828c-2.844,3.109-5.313,6.609-7.234,10.438c-2.672,5.344-4.266,11.344-4.25,17.703c0,2.813,0.297,5.703,0.953,8.594
		c1.578,6.984,3.641,13.078,6.125,18.359c3.719,7.969,8.406,14.156,13.625,18.813c4.031,3.609,8.344,6.25,12.625,8.203
		c3.781,10.313,7.578,19.031,11.594,26.484c3.984,7.438,8.203,13.625,12.828,18.844c1.531,7.297,2.766,14.484,2.766,22.75
		c0,2.797-0.125,5.734-0.453,8.844c-0.313,3-0.984,5.594-1.938,7.938c-1.422,3.484-3.484,6.453-6.313,9.281
		c-2.813,2.781-6.422,5.375-10.672,7.797c-4.328,2.453-9.328,4.734-14.781,6.938c-9.547,3.859-20.406,7.516-31.438,11.891
		c-8.281,3.313-16.641,7.063-24.625,11.781c-5.984,3.516-11.75,7.594-17.047,12.453c-7.922,7.234-14.781,16.297-19.5,27.531
		c-4.75,11.203-7.391,24.469-7.375,40.156c0,2.203,0.469,4.328,1.234,6.266c0.719,1.813,1.688,3.516,2.844,5.078
		c2.172,2.969,5,5.609,8.438,8.172c6.047,4.469,14.078,8.641,24.484,12.578c15.594,5.875,36.5,11.141,63.516,15
		c27,3.828,60.125,6.234,100.063,6.234c34.594,0,64.109-1.813,88.938-4.797c18.641-2.219,34.641-5.125,48.234-8.438
		c10.188-2.5,19.016-5.234,26.594-8.109c5.688-2.141,10.688-4.375,15.016-6.688c3.234-1.75,6.125-3.5,8.656-5.344
		c3.813-2.75,6.859-5.594,9.188-8.813c1.141-1.609,2.125-3.328,2.828-5.172c0.688-1.859,1.109-3.891,1.109-5.969
		C456.57,447.938,455.336,438.344,453.039,429.75z M238.539,437.297l-59.031-75.469c3.078-1.797,6-3.75,8.734-5.938
		c2.938-2.359,5.641-4.969,8.016-7.938l42.922,19.922l-9.156,15.281l14.188,15.047L238.539,437.297z M202.336,337.875
		c1.734-4.047,2.922-8.469,3.391-13.25c0.391-3.688,0.563-7.219,0.563-10.563c0-10.938-1.813-20.156-3.609-28.5l-0.516-2.266
		l-1.594-1.688c-4.047-4.281-7.953-9.766-11.875-17.047c-3.906-7.297-7.813-16.375-11.828-27.688l-1.313-3.703l-3.688-1.359
		c-2.563-0.938-5.047-2.141-7.438-3.75c-3.594-2.438-7.016-5.734-10.156-10.656c-3.125-4.922-5.938-11.531-7.969-20.469
		c-0.375-1.703-0.547-3.344-0.547-4.922c0-3.578,0.875-6.969,2.5-10.234c1.344-2.688,3.219-5.25,5.5-7.531
		c3.844,5.813,7,10.406,8.172,11.547c3.75,3.766,2.578,2.609,3.828,0.75c0,0,4.266-6,26.828-49.891
		c45.141,10.031,124.016-57.766,124.016-57.766s0.953,21.891,16,41.953c14.266,19.031,22.406,63.703,22.406,63.703
		s1.938-3.672,4.828-8.609c1.734,2.016,3.172,4.203,4.219,6.469c1.438,3.078,2.188,6.266,2.188,9.594
		c0,1.594-0.172,3.234-0.547,4.922c-1.359,5.953-3.047,10.891-4.969,14.953c-2.859,6.125-6.156,10.328-9.609,13.422
		c-3.469,3.094-7.141,5.109-10.969,6.516l-3.688,1.344l-1.313,3.703c-4.016,11.328-7.922,20.422-11.828,27.703
		c-3.922,7.313-7.844,12.781-11.891,17.063l-1.594,1.688l-0.5,2.281c-1.813,8.313-3.625,17.547-3.625,28.469
		c0,3.344,0.172,6.875,0.547,10.563c0.453,4.344,1.438,8.406,2.938,12.156c0.063,0.172,0.141,0.344,0.219,0.5L258.617,364
		L202.336,337.875z M277.555,440.031l-6.078-41.828l14.203-15.047l-9.188-15.344l38.828-20.406c1.078,1.391,2.203,2.719,3.422,3.953
		c3.859,3.953,8.297,7.219,13.063,10.063L277.555,440.031z"/>
</g>
</svg>